<svg width="61" height="60" viewBox="0 0 61 60" fill="none" xmlns="http://www.w3.org/2000/svg">
<rect width="61" height="60" rx="30" fill="#023c97"/>
<path d="M46.5 48V44C46.5 41.8783 45.6571 39.8434 44.1569 38.3431C42.6566 36.8429 40.6217 36 38.5 36H22.5C20.3783 36 18.3434 36.8429 16.8431 38.3431C15.3429 39.8434 14.5 41.8783 14.5 44V48M38.5 20C38.5 24.4183 34.9183 28 30.5 28C26.0817 28 22.5 24.4183 22.5 20C22.5 15.5817 26.0817 12 30.5 12C34.9183 12 38.5 15.5817 38.5 20Z" stroke="#D9D9D9" stroke-width="4" stroke-linecap="round" stroke-linejoin="round"/>
</svg>
